<svg version="1.1" viewBox="0.0 0.0 468.0551181102362 512.3018372703413" fill="none" stroke="none" stroke-linecap="square" stroke-miterlimit="10" xmlns:xlink="http://www.w3.org/1999/xlink" xmlns="http://www.w3.org/2000/svg"><clipPath id="p.0"><path d="m0 0l468.0551 0l0 512.3018l-468.0551 0l0 -512.3018z" clip-rule="nonzero"/></clipPath><g clip-path="url(#p.0)"><path fill="#000000" fill-opacity="0.0" d="m0 0l468.0551 0l0 512.3018l-468.0551 0z" fill-rule="evenodd"/><path fill="#48535b" d="m56.565617 86.03016l0 0c0 -35.454205 28.741306 -64.19551 64.19551 -64.19551l256.77435 0l0 0c17.025696 0 33.354095 6.7634354 45.393066 18.802427c12.039001 12.038994 18.80243 28.367374 18.80243 45.393085l0 338.8531c0 35.454193 -28.741302 64.195496 -64.195496 64.195496l-256.77435 0c-35.4542 0 -64.19551 -28.741302 -64.19551 -64.195496z" fill-rule="evenodd"/><path stroke="#30383d" stroke-width="12.0" stroke-linejoin="round" stroke-linecap="butt" d="m56.565617 86.03016l0 0c0 -35.454205 28.741306 -64.19551 64.19551 -64.19551l256.77435 0l0 0c17.025696 0 33.354095 6.7634354 45.393066 18.802427c12.039001 12.038994 18.80243 28.367374 18.80243 45.393085l0 338.8531c0 35.454193 -28.741302 64.195496 -64.195496 64.195496l-256.77435 0c-35.4542 0 -64.19551 -28.741302 -64.19551 -64.195496z" fill-rule="evenodd"/><path fill="#e9ecef" d="m18.26903 95.69292l0 0c0 -9.367104 7.5935326 -16.960632 16.96063 -16.960632l43.779526 0l0 0c4.4982376 0 8.812241 1.7869186 11.992973 4.9676514c3.1807404 3.1807327 4.967659 7.4947357 4.967659 11.992981l0 0l0 0c0 9.367096 -7.5935364 16.960625 -16.960632 16.960625l-43.779526 0c-9.367098 0 -16.96063 -7.5935287 -16.96063 -16.960625z" fill-rule="evenodd"/><path stroke="#30383d" stroke-width="12.0" stroke-linejoin="round" stroke-linecap="butt" d="m18.26903 95.69292l0 0c0 -9.367104 7.5935326 -16.960632 16.96063 -16.960632l43.779526 0l0 0c4.4982376 0 8.812241 1.7869186 11.992973 4.9676514c3.1807404 3.1807327 4.967659 7.4947357 4.967659 11.992981l0 0l0 0c0 9.367096 -7.5935364 16.960625 -16.960632 16.960625l-43.779526 0c-9.367098 0 -16.96063 -7.5935287 -16.96063 -16.960625z" fill-rule="evenodd"/><path fill="#ffffff" d="m154.88058 110.021286l0 0c0 -8.042351 6.5196075 -14.561966 14.561966 -14.561966l159.41148 0c3.862091 0 7.565979 1.5342026 10.296875 4.2650986c2.730896 2.7309036 4.265106 6.4347916 4.265106 10.296867l0 58.24614c0 8.042358 -6.519623 14.561966 -14.561981 14.561966l-159.41148 0l0 0c-8.042358 0 -14.561966 -6.5196075 -14.561966 -14.561966z" fill-rule="evenodd"/><path fill="#e9ecef" d="m18.26903 159.69292l0 0c0 -9.367096 7.5935326 -16.960632 16.96063 -16.960632l43.779526 0l0 0c4.4982376 0 8.812241 1.786911 11.992973 4.9676514c3.1807404 3.1807404 4.967659 7.4947357 4.967659 11.992981l0 0l0 0c0 9.367096 -7.5935364 16.960632 -16.960632 16.960632l-43.779526 0c-9.367098 0 -16.96063 -7.5935364 -16.96063 -16.960632z" fill-rule="evenodd"/><path stroke="#30383d" stroke-width="12.0" stroke-linejoin="round" stroke-linecap="butt" d="m18.26903 159.69292l0 0c0 -9.367096 7.5935326 -16.960632 16.96063 -16.960632l43.779526 0l0 0c4.4982376 0 8.812241 1.786911 11.992973 4.9676514c3.1807404 3.1807404 4.967659 7.4947357 4.967659 11.992981l0 0l0 0c0 9.367096 -7.5935364 16.960632 -16.960632 16.960632l-43.779526 0c-9.367098 0 -16.96063 -7.5935364 -16.96063 -16.960632z" fill-rule="evenodd"/><path fill="#e9ecef" d="m18.26903 223.69292l0 0c0 -9.367096 7.5935326 -16.960632 16.96063 -16.960632l43.779526 0l0 0c4.4982376 0 8.812241 1.786911 11.992973 4.9676514c3.1807404 3.1807404 4.967659 7.4947357 4.967659 11.992981l0 0l0 0c0 9.367096 -7.5935364 16.960632 -16.960632 16.960632l-43.779526 0c-9.367098 0 -16.96063 -7.5935364 -16.96063 -16.960632z" fill-rule="evenodd"/><path stroke="#30383d" stroke-width="12.0" stroke-linejoin="round" stroke-linecap="butt" d="m18.26903 223.69292l0 0c0 -9.367096 7.5935326 -16.960632 16.96063 -16.960632l43.779526 0l0 0c4.4982376 0 8.812241 1.786911 11.992973 4.9676514c3.1807404 3.1807404 4.967659 7.4947357 4.967659 11.992981l0 0l0 0c0 9.367096 -7.5935364 16.960632 -16.960632 16.960632l-43.779526 0c-9.367098 0 -16.96063 -7.5935364 -16.96063 -16.960632z" fill-rule="evenodd"/><path fill="#e9ecef" d="m18.26903 287.6929l0 0c0 -9.367096 7.5935326 -16.960632 16.96063 -16.960632l43.779526 0l0 0c4.4982376 0 8.812241 1.7869263 11.992973 4.967682c3.1807404 3.180725 4.967659 7.4947205 4.967659 11.99295l0 0l0 0c0 9.367096 -7.5935364 16.960632 -16.960632 16.960632l-43.779526 0c-9.367098 0 -16.96063 -7.5935364 -16.96063 -16.960632z" fill-rule="evenodd"/><path stroke="#30383d" stroke-width="12.0" stroke-linejoin="round" stroke-linecap="butt" d="m18.26903 287.6929l0 0c0 -9.367096 7.5935326 -16.960632 16.96063 -16.960632l43.779526 0l0 0c4.4982376 0 8.812241 1.7869263 11.992973 4.967682c3.1807404 3.180725 4.967659 7.4947205 4.967659 11.99295l0 0l0 0c0 9.367096 -7.5935364 16.960632 -16.960632 16.960632l-43.779526 0c-9.367098 0 -16.96063 -7.5935364 -16.96063 -16.960632z" fill-rule="evenodd"/><path fill="#e9ecef" d="m18.26903 351.6929l0 0c0 -9.367096 7.5935326 -16.960632 16.96063 -16.960632l43.779526 0l0 0c4.4982376 0 8.812241 1.7869263 11.992973 4.967682c3.1807404 3.180725 4.967659 7.4947205 4.967659 11.99295l0 0l0 0c0 9.367096 -7.5935364 16.960632 -16.960632 16.960632l-43.779526 0c-9.367098 0 -16.96063 -7.5935364 -16.96063 -16.960632z" fill-rule="evenodd"/><path stroke="#30383d" stroke-width="12.0" stroke-linejoin="round" stroke-linecap="butt" d="m18.26903 351.6929l0 0c0 -9.367096 7.5935326 -16.960632 16.96063 -16.960632l43.779526 0l0 0c4.4982376 0 8.812241 1.7869263 11.992973 4.967682c3.1807404 3.180725 4.967659 7.4947205 4.967659 11.99295l0 0l0 0c0 9.367096 -7.5935364 16.960632 -16.960632 16.960632l-43.779526 0c-9.367098 0 -16.96063 -7.5935364 -16.96063 -16.960632z" fill-rule="evenodd"/><path fill="#e9ecef" d="m18.26903 415.6929l0 0c0 -9.367096 7.5935326 -16.960632 16.96063 -16.960632l43.779526 0l0 0c4.4982376 0 8.812241 1.7869263 11.992973 4.967682c3.1807404 3.180725 4.967659 7.4947205 4.967659 11.99295l0 0l0 0c0 9.367096 -7.5935364 16.960632 -16.960632 16.960632l-43.779526 0c-9.367098 0 -16.96063 -7.5935364 -16.96063 -16.960632z" fill-rule="evenodd"/><path stroke="#30383d" stroke-width="12.0" stroke-linejoin="round" stroke-linecap="butt" d="m18.26903 415.6929l0 0c0 -9.367096 7.5935326 -16.960632 16.96063 -16.960632l43.779526 0l0 0c4.4982376 0 8.812241 1.7869263 11.992973 4.967682c3.1807404 3.180725 4.967659 7.4947205 4.967659 11.99295l0 0l0 0c0 9.367096 -7.5935364 16.960632 -16.960632 16.960632l-43.779526 0c-9.367098 0 -16.96063 -7.5935364 -16.96063 -16.960632z" fill-rule="evenodd"/><path fill="#b1b9bf" d="m165.88977 223.69292l0 0c0 -2.774475 2.2491455 -5.0236206 5.0236206 -5.0236206l156.47244 0c1.3323364 0 2.6101074 0.52926636 3.5522156 1.4713745c0.9421387 0.9421234 1.471405 2.2198944 1.471405 3.552246l0 0l0 0c0 2.7744598 -2.2491455 5.0236206 -5.0236206 5.0236206l-156.47244 0c-2.774475 0 -5.0236206 -2.2491608 -5.0236206 -5.0236206z" fill-rule="evenodd"/><path fill="#b1b9bf" d="m165.88977 255.4567l0 0c0 -2.774475 2.2491455 -5.0236206 5.0236206 -5.0236206l156.47244 0c1.3323364 0 2.6101074 0.52926636 3.5522156 1.4713745c0.9421387 0.9421234 1.471405 2.2198944 1.471405 3.552246l0 0l0 0c0 2.774475 -2.2491455 5.0236206 -5.0236206 5.0236206l-156.47244 0c-2.774475 0 -5.0236206 -2.2491455 -5.0236206 -5.0236206z" fill-rule="evenodd"/><path fill="#8dd719" d="m171.92145 365.07913l72.664246 0l0 -72.664246l9.127823 0l0 72.664246l72.66423 0l0 9.127838l-72.66423 0l0 72.664215l-9.127823 0l0 -72.664215l-72.664246 0z" fill-rule="evenodd"/><path stroke="#8dd719" stroke-width="24.0" stroke-linejoin="round" stroke-linecap="butt" d="m171.92145 365.07913l72.664246 0l0 -72.664246l9.127823 0l0 72.664246l72.66423 0l0 9.127838l-72.66423 0l0 72.664215l-9.127823 0l0 -72.664215l-72.664246 0z" fill-rule="evenodd"/></g></svg>