<svg version="1.1" viewBox="0.0 0.0 473.6719160104987 516.4251968503937" fill="none" stroke="none" stroke-linecap="square" stroke-miterlimit="10" xmlns:xlink="http://www.w3.org/1999/xlink" xmlns="http://www.w3.org/2000/svg"><clipPath id="p.0"><path d="m0 0l473.6719 0l0 516.4252l-473.6719 0l0 -516.4252z" clip-rule="nonzero"/></clipPath><g clip-path="url(#p.0)"><path fill="#000000" fill-opacity="0.0" d="m0 0l473.6719 0l0 516.4252l-473.6719 0z" fill-rule="evenodd"/><path fill="#394145" d="m47.560368 80.99802l0 0c0 -24.350151 19.739704 -44.089855 44.089855 -44.089855l290.37146 0c11.693359 0 22.907776 4.6451683 31.176239 12.91362c8.268433 8.268452 12.913605 19.482883 12.913605 31.176235l0 366.30847c0 24.350159 -19.739685 44.089874 -44.089844 44.089874l-290.37146 0c-24.350151 0 -44.089855 -19.739716 -44.089855 -44.089874z" fill-rule="evenodd"/><path stroke="#313a3d" stroke-width="11.089238845144356" stroke-linejoin="round" stroke-linecap="butt" d="m47.560368 80.99802l0 0c0 -24.350151 19.739704 -44.089855 44.089855 -44.089855l290.37146 0c11.693359 0 22.907776 4.6451683 31.176239 12.91362c8.268433 8.268452 12.913605 19.482883 12.913605 31.176235l0 366.30847c0 24.350159 -19.739685 44.089874 -44.089844 44.089874l-290.37146 0c-24.350151 0 -44.089855 -19.739716 -44.089855 -44.089874z" fill-rule="evenodd"/><path fill="#ffffff" d="m68.75865 473.62497l0 0c0 -6.801361 5.5135956 -12.314972 12.314964 -12.314972l316.31497 0c3.2661133 0 6.3984985 1.2974548 8.707977 3.606964c2.3095093 2.3095093 3.606964 5.441864 3.606964 8.708008l0 0l0 0c0 6.801361 -5.5135803 12.314941 -12.314941 12.314941l-316.31497 0c-6.8013687 0 -12.314964 -5.5135803 -12.314964 -12.314941z" fill-rule="evenodd"/><path fill="#ffffff" d="m352.18112 66.43147l0 0c0 -14.309151 11.5998535 -25.909004 25.909027 -25.909004l16.622925 0l0 0c6.8714905 0 13.461548 2.7296906 18.320435 7.5885696c4.8588867 4.858883 7.588562 11.448936 7.588562 18.320435l0 394.38672c0 14.309174 -11.5998535 25.909027 -25.908997 25.909027l-16.622925 0c-14.309174 0 -25.909027 -11.5998535 -25.909027 -25.909027z" fill-rule="evenodd"/><path fill="#4d5659" d="m125.42114 40.52362l265.88977 0l0 397.10236l-265.88977 0z" fill-rule="evenodd"/><path fill="#4d5659" d="m82.86654 42.642536l255.93701 0l0 418.67715l-255.93701 0z" fill-rule="evenodd"/><path fill="#4d5659" d="m315.40225 423.9747l0 0c0 -12.789764 10.368134 -23.157928 23.157898 -23.157928l29.558197 0l0 0c6.1418457 0 12.032166 2.4398499 16.375122 6.7828064c4.342926 4.3429565 6.782776 10.233276 6.782776 16.375122l0 14.156616l0 0c0 12.789764 -10.368134 23.157898 -23.157898 23.157898l-29.558197 0c-12.789764 0 -23.157898 -10.368134 -23.157898 -23.157898z" fill-rule="evenodd"/><path fill="#000000" fill-opacity="0.0" d="m47.560368 76.977806l0 0c0 -22.129852 17.939793 -40.069645 40.069645 -40.069645l298.4119 0c10.627136 0 20.819 4.221611 28.333527 11.73613c7.514496 7.514515 11.7361145 17.706387 11.7361145 28.333515l0 374.3489c0 22.129852 -17.939789 40.06964 -40.06964 40.06964l-298.4119 0c-22.129852 0 -40.069645 -17.939789 -40.069645 -40.06964z" fill-rule="evenodd"/><path stroke="#313a3d" stroke-width="11.089238845144356" stroke-linejoin="round" stroke-linecap="butt" d="m47.560368 76.977806l0 0c0 -22.129852 17.939793 -40.069645 40.069645 -40.069645l298.4119 0c10.627136 0 20.819 4.221611 28.333527 11.73613c7.514496 7.514515 11.7361145 17.706387 11.7361145 28.333515l0 374.3489c0 22.129852 -17.939789 40.06964 -40.06964 40.06964l-298.4119 0c-22.129852 0 -40.069645 -17.939789 -40.069645 -40.06964z" fill-rule="evenodd"/><path fill="#84c941" d="m125.42083 114.94546l0 -53.196133l38.409447 -14.142448l38.409454 14.142448l0 53.196133l-38.409454 -14.142448z" fill-rule="evenodd"/><path stroke="#313a3d" stroke-width="7.393700787401575" stroke-linejoin="round" stroke-linecap="butt" d="m125.42083 114.94546l0 -53.196133l38.409447 -14.142448l38.409454 14.142448l0 53.196133l-38.409454 -14.142448z" fill-rule="evenodd"/><path fill="#9cd84a" d="m125.42083 32.60781l0 0c0 -4.186434 3.393776 -7.580206 7.580208 -7.580206l61.658493 0c2.0103912 0 3.938446 0.79862595 5.360016 2.22019c1.4215546 1.4215641 2.2201843 3.349619 2.2201843 5.360016l0 30.319904c0 4.186428 -3.3937683 7.580204 -7.5802 7.580204l-61.658493 0c-4.186432 0 -7.580208 -3.393776 -7.580208 -7.580204z" fill-rule="evenodd"/><path stroke="#313a3d" stroke-width="7.393700787401575" stroke-linejoin="round" stroke-linecap="butt" d="m125.42083 32.60781l0 0c0 -4.186434 3.393776 -7.580206 7.580208 -7.580206l61.658493 0c2.0103912 0 3.938446 0.79862595 5.360016 2.22019c1.4215546 1.4215641 2.2201843 3.349619 2.2201843 5.360016l0 30.319904c0 4.186428 -3.3937683 7.580204 -7.5802 7.580204l-61.658493 0c-4.186432 0 -7.580208 -3.393776 -7.580208 -7.580204z" fill-rule="evenodd"/><defs><linearGradient id="p.1" gradientUnits="userSpaceOnUse" gradientTransform="matrix(8.206024242403831 0.0 0.0 8.206024242403831 0.0 0.0)" spreadMethod="pad" x1="15.734071630103347" y1="3.500854301518976" x2="15.734041644450752" y2="11.706878543868022"><stop offset="0.0" stop-color="#c4e98e"/><stop offset="0.45" stop-color="#9fd94b"/><stop offset="1.0" stop-color="#84c941"/></linearGradient></defs><path fill="url(#p.1)" d="m129.11417 28.728346l69.38583 0l0 67.338585l-69.38583 0z" fill-rule="evenodd"/><path fill="#b8b7b7" d="m142.99268 147.6826l0 0c0 -4.5922394 3.7227478 -8.314972 8.314972 -8.314972l171.05511 0c2.2052612 0 4.320221 0.8760376 5.8795776 2.4353943c1.5593567 1.5593567 2.4353943 3.6743011 2.4353943 5.8795776l0 0l0 0c0 4.592224 -3.7227478 8.314957 -8.314972 8.314957l-171.05511 0c-4.592224 0 -8.314972 -3.7227325 -8.314972 -8.314957z" fill-rule="evenodd"/><path fill="#b8b7b7" d="m159.93385 178.34354l0 0c0 -4.592224 3.7227325 -8.314957 8.314957 -8.314957l137.16534 0c2.2052612 0 4.320221 0.8760376 5.8795776 2.4353943c1.5593567 1.5593567 2.4353943 3.6743011 2.4353943 5.8795624l0 0l0 0c0 4.592224 -3.7227478 8.314972 -8.314972 8.314972l-137.16534 0c-4.592224 0 -8.314957 -3.7227478 -8.314957 -8.314972z" fill-rule="evenodd"/><path fill="#9fd94b" d="m302.1297 286.70996l0 0c6.06839 0 10.987793 4.919403 10.987793 10.987793l0 19.693726l0 0c0 2.914154 -1.1576538 5.7089233 -3.2182617 7.7695312c-2.060608 2.060608 -4.855377 3.2182312 -7.7695312 3.2182312l-130.59137 0c-6.0683746 0 -10.987778 -4.9193726 -10.987778 -10.987762l0 -19.693726l0 0c0 -6.06839 4.919403 -10.987793 10.987778 -10.987793z" fill-rule="evenodd"/><defs><linearGradient id="p.2" gradientUnits="userSpaceOnUse" gradientTransform="matrix(12.351804429783051 0.0 0.0 12.351804429783051 0.0 0.0)" spreadMethod="pad" x1="17.48824818688281" y1="18.722619994401203" x2="17.488203364141693" y2="31.074424424102926"><stop offset="0.0" stop-color="#c4e98e"/><stop offset="0.33" stop-color="#9fd94b"/><stop offset="0.69" stop-color="#9fd94b"/><stop offset="1.0" stop-color="#84c941"/></linearGradient></defs><path fill="url(#p.2)" d="m216.01143 242.24606l0 0c0 -6.06839 4.919388 -10.987778 10.987778 -10.987778l19.69374 0l0 0c2.9141388 0 5.7089233 1.1576385 7.7695312 3.2182465c2.0605927 2.060608 3.2182465 4.8553925 3.2182465 7.7695312l0 130.59137c0 6.06839 -4.919403 10.987793 -10.987778 10.987793l-19.69374 0l0 0c-6.06839 0 -10.987778 -4.919403 -10.987778 -10.987793z" fill-rule="evenodd"/></g></svg>