<svg version="1.1" viewBox="0.0 0.0 168.0 168.0" fill="none" stroke="none" stroke-linecap="square" stroke-miterlimit="10" xmlns:xlink="http://www.w3.org/1999/xlink" xmlns="http://www.w3.org/2000/svg"><clipPath id="p.0"><path d="m0 0l168.0 0l0 168.0l-168.0 0l0 -168.0z" clip-rule="nonzero"/></clipPath><g clip-path="url(#p.0)"><path fill="#000000" fill-opacity="0.0" d="m0 0l168.0 0l0 168.0l-168.0 0z" fill-rule="evenodd"/><path fill="#9fd94b" d="m148.18239 63.08531l0 0c6.0913086 0 11.029297 4.9379883 11.029297 11.0293045l0 19.768166l0 0c0 2.9251556 -1.1620178 5.7304993 -3.2304077 7.798897c-2.06839 2.06839 -4.873749 3.2304077 -7.798889 3.2304077l-128.3666 0c-6.0913153 0 -11.029302 -4.9379883 -11.029302 -11.0293045l0 -19.768166l0 0c0 -6.091316 4.9379864 -11.0293045 11.029302 -11.0293045z" fill-rule="evenodd"/><defs><linearGradient id="p.1" gradientUnits="userSpaceOnUse" gradientTransform="matrix(12.376004820025665 0.0 0.0 12.376004820025665 0.0 0.0)" spreadMethod="pad" x1="5.128574018008556" y1="0.5992988572078022" x2="5.128529282915096" y2="12.975303677152617"><stop offset="0.0" stop-color="#c4e98e"/><stop offset="0.33" stop-color="#9fd94b"/><stop offset="0.69" stop-color="#9fd94b"/><stop offset="1.0" stop-color="#84c941"/></linearGradient></defs><path fill="url(#p.1)" d="m63.471256 18.247051l0 0c0 -5.9812317 4.8487434 -10.829977 10.829975 -10.829977l19.410912 0l0 0c2.8722916 0 5.626938 1.1410117 7.6579514 3.172027c2.0310135 2.0310144 3.1720276 4.7856607 3.1720276 7.6579504l0 131.5054c0 5.9812317 -4.8487473 10.829971 -10.829979 10.829971l-19.410912 0l0 0c-5.9812317 0 -10.829975 -4.8487396 -10.829975 -10.829971z" fill-rule="evenodd"/></g></svg>