<svg version="1.1" viewBox="0.0 0.0 864.0 864.0" fill="none" stroke="none" stroke-linecap="square" stroke-miterlimit="10" xmlns:xlink="http://www.w3.org/1999/xlink" xmlns="http://www.w3.org/2000/svg"><clipPath id="p.0"><path d="m0 0l864.0 0l0 864.0l-864.0 0l0 -864.0z" clip-rule="nonzero"/></clipPath><g clip-path="url(#p.0)"><path fill="#000000" fill-opacity="0.0" d="m0 0l864.0 0l0 864.0l-864.0 0z" fill-rule="evenodd"/><path fill="#394145" d="m242.72441 231.35367l0 0c0 -24.350159 19.7397 -44.08986 44.08986 -44.08986l290.37146 0c11.693359 0 22.907776 4.645172 31.17627 12.91362c8.268433 8.268448 12.913574 19.48288 12.913574 31.176239l0 366.30844c0 24.350159 -19.739685 44.089905 -44.089844 44.089905l-290.37146 0c-24.350159 0 -44.08986 -19.739746 -44.08986 -44.089905z" fill-rule="evenodd"/><path stroke="#313a3d" stroke-width="11.089238845144356" stroke-linejoin="round" stroke-linecap="butt" d="m242.72441 231.35367l0 0c0 -24.350159 19.7397 -44.08986 44.08986 -44.08986l290.37146 0c11.693359 0 22.907776 4.645172 31.17627 12.91362c8.268433 8.268448 12.913574 19.48288 12.913574 31.176239l0 366.30844c0 24.350159 -19.739685 44.089905 -44.089844 44.089905l-290.37146 0c-24.350159 0 -44.08986 -19.739746 -44.08986 -44.089905z" fill-rule="evenodd"/><path fill="#ffffff" d="m263.9227 623.9806l0 0c0 -6.8013306 5.5135803 -12.314941 12.314972 -12.314941l316.31494 0c3.2661133 0 6.3984985 1.2974854 8.708008 3.6069336c2.3095093 2.3095093 3.6069336 5.4418945 3.6069336 8.708008l0 0l0 0c0 6.8013916 -5.51355 12.315002 -12.314941 12.315002l-316.31494 0c-6.8013916 0 -12.314972 -5.513611 -12.314972 -12.315002z" fill-rule="evenodd"/><path fill="#ffffff" d="m547.34515 216.78711l0 0c0 -14.309143 11.5998535 -25.908997 25.908997 -25.908997l16.622986 0l0 0c6.87146 0 13.461548 2.7296906 18.320435 7.588562c4.8588867 4.8588867 7.588562 11.448944 7.588562 18.320435l0 394.38672c0 14.309143 -11.5998535 25.908997 -25.908997 25.908997l-16.622986 0c-14.309143 0 -25.908997 -11.5998535 -25.908997 -25.908997z" fill-rule="evenodd"/><path fill="#4d5659" d="m278.03058 192.99818l255.93701 0l0 418.6772l-255.93701 0z" fill-rule="evenodd"/><path fill="#4d5659" d="m278.03064 190.87811l308.44092 0l0 397.10236l-308.44092 0z" fill-rule="evenodd"/><path fill="#4d5659" d="m510.56628 574.3303l0 0c0 -12.789734 10.368164 -23.157898 23.157898 -23.157898l29.558167 0l0 0c6.1419067 0 12.032227 2.4398804 16.375122 6.782776c4.3429565 4.3429565 6.782837 10.233276 6.782837 16.375122l0 14.156616l0 0c0 12.789795 -10.368164 23.157959 -23.157959 23.157959l-29.558167 0c-12.789734 0 -23.157898 -10.368164 -23.157898 -23.157959z" fill-rule="evenodd"/><path fill="#000000" fill-opacity="0.0" d="m242.72441 225.19084l0 0c0 -20.946518 16.980515 -37.927032 37.927048 -37.927032l302.6971 0c10.058838 0 19.70575 3.9958649 26.81842 11.108566c7.112732 7.1127014 11.108582 16.759598 11.108582 26.818466l0 378.6341c0 20.946533 -16.980469 37.927063 -37.927002 37.927063l-302.6971 0c-20.946533 0 -37.927048 -16.98053 -37.927048 -37.927063z" fill-rule="evenodd"/><path stroke="#313a3d" stroke-width="11.089238845144356" stroke-linejoin="round" stroke-linecap="butt" d="m242.72441 225.19084l0 0c0 -20.946518 16.980515 -37.927032 37.927048 -37.927032l302.6971 0c10.058838 0 19.70575 3.9958649 26.81842 11.108566c7.112732 7.1127014 11.108582 16.759598 11.108582 26.818466l0 378.6341c0 20.946533 -16.980469 37.927063 -37.927002 37.927063l-302.6971 0c-20.946533 0 -37.927048 -16.98053 -37.927048 -37.927063z" fill-rule="evenodd"/><path fill="#84c941" d="m320.58487 265.30112l0 -53.19615l38.409454 -14.142441l38.409454 14.142441l0 53.19615l-38.409454 -14.142471z" fill-rule="evenodd"/><path stroke="#313a3d" stroke-width="7.393700787401575" stroke-linejoin="round" stroke-linecap="butt" d="m320.58487 265.30112l0 -53.19615l38.409454 -14.142441l38.409454 14.142441l0 53.19615l-38.409454 -14.142471z" fill-rule="evenodd"/><path fill="#9cd84a" d="m320.58487 182.96346l0 0c0 -4.186432 3.3937683 -7.5802 7.5802 -7.5802l61.65851 0c2.010376 0 3.938446 0.7986145 5.360016 2.2201843c1.4215393 1.4215698 2.2201843 3.3496246 2.2201843 5.360016l0 30.3199c0 4.186432 -3.3937683 7.5802 -7.5802 7.5802l-61.65851 0c-4.186432 0 -7.5802 -3.3937683 -7.5802 -7.5802z" fill-rule="evenodd"/><path stroke="#313a3d" stroke-width="7.393700787401575" stroke-linejoin="round" stroke-linecap="butt" d="m320.58487 182.96346l0 0c0 -4.186432 3.3937683 -7.5802 7.5802 -7.5802l61.65851 0c2.010376 0 3.938446 0.7986145 5.360016 2.2201843c1.4215393 1.4215698 2.2201843 3.3496246 2.2201843 5.360016l0 30.3199c0 4.186432 -3.3937683 7.5802 -7.5802 7.5802l-61.65851 0c-4.186432 0 -7.5802 -3.3937683 -7.5802 -7.5802z" fill-rule="evenodd"/><defs><linearGradient id="p.1" gradientUnits="userSpaceOnUse" gradientTransform="matrix(8.206023930053279 0.0 0.0 8.206023930053279 0.0 0.0)" spreadMethod="pad" x1="39.529927398301034" y1="21.82348882342913" x2="39.5298974126473" y2="30.029512753427625"><stop offset="0.0" stop-color="#c4e98e"/><stop offset="0.45" stop-color="#9fd94b"/><stop offset="1.0" stop-color="#84c941"/></linearGradient></defs><path fill="url(#p.1)" d="m324.38354 179.08432l69.29132 0l0 67.33858l-69.29132 0z" fill-rule="evenodd"/><path fill="#b8b7b7" d="m338.15674 298.03824l0 0c0 -4.592224 3.7227173 -8.314972 8.314941 -8.314972l171.05511 0c2.2052612 0 4.3201904 0.8760376 5.8795776 2.4353943c1.5593262 1.5593567 2.4353638 3.6743164 2.4353638 5.8795776l0 0l0 0c0 4.592224 -3.7227173 8.314972 -8.314941 8.314972l-171.05511 0c-4.592224 0 -8.314941 -3.7227478 -8.314941 -8.314972z" fill-rule="evenodd"/><path fill="#b8b7b7" d="m355.0979 328.6992l0 0c0 -4.592224 3.7227173 -8.314972 8.314941 -8.314972l137.16537 0c2.2052612 0 4.3201904 0.8760376 5.879547 2.4353943c1.5593567 1.5593567 2.4353943 3.6743164 2.4353943 5.8795776l0 0l0 0c0 4.592224 -3.7227173 8.314972 -8.314941 8.314972l-137.16537 0c-4.592224 0 -8.314941 -3.7227478 -8.314941 -8.314972z" fill-rule="evenodd"/><path fill="#9fd94b" d="m497.29376 437.0656l0 0c6.0683594 0 10.987762 4.919403 10.987762 10.987762l0 19.693756l0 0c0 2.9141235 -1.1576233 5.7089233 -3.2182312 7.7695312c-2.060608 2.060608 -4.8554077 3.2182312 -7.7695312 3.2182312l-130.5914 0c-6.0683594 0 -10.987762 -4.919403 -10.987762 -10.987762l0 -19.693756l0 0c0 -6.0683594 4.919403 -10.987762 10.987762 -10.987762z" fill-rule="evenodd"/><defs><linearGradient id="p.2" gradientUnits="userSpaceOnUse" gradientTransform="matrix(12.35180525983083 0.0 0.0 12.35180525983083 0.0 0.0)" spreadMethod="pad" x1="33.28869215988735" y1="30.89538371888047" x2="33.288648997250654" y2="43.24718897863588"><stop offset="0.0" stop-color="#c4e98e"/><stop offset="0.33" stop-color="#9fd94b"/><stop offset="0.69" stop-color="#9fd94b"/><stop offset="1.0" stop-color="#84c941"/></linearGradient></defs><path fill="url(#p.2)" d="m411.17548 392.6017l0 0c0 -6.06839 4.919403 -10.987793 10.987762 -10.987793l19.693756 0l0 0c2.9141235 0 5.7089233 1.1576538 7.7695312 3.2182617c2.060608 2.060608 3.2182312 4.855377 3.2182312 7.7695312l0 130.59134c0 6.0684204 -4.919403 10.987793 -10.987762 10.987793l-19.693756 0l0 0c-6.0683594 0 -10.987762 -4.9193726 -10.987762 -10.987793z" fill-rule="evenodd"/></g></svg>