<svg version="1.1" viewBox="0.0 0.0 480.0 480.0" fill="none" stroke="none" stroke-linecap="square" stroke-miterlimit="10" xmlns:xlink="http://www.w3.org/1999/xlink" xmlns="http://www.w3.org/2000/svg"><clipPath id="p.0"><path d="m0 0l480.0 0l0 480.0l-480.0 0l0 -480.0z" clip-rule="nonzero"/></clipPath><g clip-path="url(#p.0)"><path fill="#000000" fill-opacity="0.0" d="m0 0l480.0 0l0 480.0l-480.0 0z" fill-rule="evenodd"/><path fill="#394145" d="m14.286089 88.6393l0 0c0 -41.554096 33.68625 -75.24035 75.24035 -75.24035l300.9524 0l0 0c19.954956 0 39.09265 7.927086 53.20294 22.037386c14.110321 14.110306 22.037384 33.247982 22.037384 53.20296l0 302.71613c0 41.554108 -33.68625 75.24036 -75.240326 75.24036l-300.9524 0l0 0c-41.554096 0 -75.24035 -33.68625 -75.24035 -75.24036z" fill-rule="evenodd"/><path stroke="#313a3d" stroke-width="8.0" stroke-linejoin="round" stroke-linecap="butt" d="m14.286089 88.6393l0 0c0 -41.554096 33.68625 -75.24035 75.24035 -75.24035l300.9524 0l0 0c19.954956 0 39.09265 7.927086 53.20294 22.037386c14.110321 14.110306 22.037384 33.247982 22.037384 53.20296l0 302.71613c0 41.554108 -33.68625 75.24036 -75.240326 75.24036l-300.9524 0l0 0c-41.554096 0 -75.24035 -33.68625 -75.24035 -75.24036z" fill-rule="evenodd"/></g></svg>